<?xml version="1.0" encoding="utf-8"?>
<!-- Generator: Adobe Illustrator 16.0.0, SVG Export Plug-In . SVG Version: 6.00 Build 0)  -->
<!DOCTYPE svg PUBLIC "-//W3C//DTD SVG 1.1//EN" "http://www.w3.org/Graphics/SVG/1.1/DTD/svg11.dtd">
<svg version="1.1" id="Layer_1" xmlns="http://www.w3.org/2000/svg" xmlns:xlink="http://www.w3.org/1999/xlink" x="0px" y="0px"
	 width="18.606px" height="18.625px" viewBox="0 0 18.606 18.625" enable-background="new 0 0 18.606 18.625" xml:space="preserve">
<g>
	<defs>
		<rect id="SVGID_1_" x="-0.078" y="-0.156" width="18.606" height="18.625"/>
	</defs>
	<clipPath id="SVGID_2_">
		<use xlink:href="#SVGID_1_"  overflow="visible"/>
	</clipPath>
	<g clip-path="url(#SVGID_2_)">
		<path fill-rule="evenodd" clip-rule="evenodd" d="M12.204,18.445c-0.015-0.191-0.035-0.333-0.035-0.475
			c-0.002-1.986,0.01-3.972-0.011-5.957c-0.004-0.426,0.151-0.522,0.539-0.508c0.699,0.026,1.4-0.005,2.099,0.013
			c0.31,0.008,0.442-0.085,0.436-0.411c-0.015-0.765-0.011-1.53-0.001-2.295c0.004-0.289-0.099-0.404-0.4-0.397
			c-0.749,0.016-1.498-0.007-2.246,0.01c-0.318,0.008-0.418-0.1-0.424-0.419c-0.033-1.66,0.221-1.658,1.556-1.618
			c0.484,0.015,0.968,0.002,1.508,0.002c0-0.97,0.006-1.878-0.01-2.786c-0.001-0.089-0.137-0.255-0.206-0.253
			c-1.021,0.027-2.076-0.074-3.053,0.154c-1.542,0.359-2.55,1.851-2.634,3.548c-0.021,0.434-0.003,0.87-0.003,1.367
			c-0.646,0-1.228,0.013-1.808-0.005c-0.332-0.01-0.471,0.1-0.462,0.446c0.018,0.732,0.021,1.465-0.001,2.197
			c-0.012,0.382,0.155,0.472,0.497,0.459c0.565-0.019,1.131-0.005,1.73-0.005c0,2.325,0,4.594,0,6.908
			c-0.163,0.008-0.32,0.024-0.477,0.024c-1.791,0.002-3.581,0.005-5.372,0c-1.947-0.006-3.304-1.372-3.306-3.328
			c-0.003-3.906-0.003-7.812,0-11.719c0.002-1.967,1.348-3.32,3.303-3.322c3.923-0.003,7.846-0.003,11.768,0
			c1.959,0.001,3.305,1.351,3.307,3.315c0.003,3.906,0.003,7.812,0,11.719c-0.001,1.98-1.358,3.33-3.346,3.335
			C14.18,18.447,13.208,18.445,12.204,18.445z"/>
	</g>
</g>
</svg>
