<?xml version="1.0" encoding="utf-8"?>
<!-- Generator: Adobe Illustrator 16.0.0, SVG Export Plug-In . SVG Version: 6.00 Build 0)  -->
<!DOCTYPE svg PUBLIC "-//W3C//DTD SVG 1.1//EN" "http://www.w3.org/Graphics/SVG/1.1/DTD/svg11.dtd">
<svg version="1.1" id="Layer_1" xmlns="http://www.w3.org/2000/svg" xmlns:xlink="http://www.w3.org/1999/xlink" x="0px" y="0px"
	 width="678.955px" height="187.5px" viewBox="0 0 678.955 187.5" enable-background="new 0 0 678.955 187.5" xml:space="preserve">
<rect fill="#F6F6F6" width="678.955" height="187.5"/>
<rect x="339.162" y="-40.67" fill="none" width="610.252" height="121.335"/>
<rect x="355.077" y="24.313" fill="none" width="177.423" height="58.352"/>
<text transform="matrix(1 0 0 1 355.0767 47.9414)" font-family="'Arial-BoldMT'" font-size="33">TÅBLË</text>
<rect x="27.903" y="97.545" transform="matrix(1 0.0045 -0.0045 1 0.7439 -0.7955)" fill="none" width="302" height="137.999"/>
<text transform="matrix(1 0 0 1 28.1763 177.0635)" fill="#2B3990" font-family="'Arial-BoldMT'" font-size="112">IKEA</text>
<rect x="443.788" y="60.659" fill="none" width="35.211" height="29.176"/>
<text transform="matrix(1 0 0 1 443.7881 72.8311)" font-family="'ArialMT'" font-size="17">$5</text>
<polygon fill="#FFFFFF" stroke="#000000" stroke-miterlimit="10" points="470.241,83.62 570.574,44.667 669.727,58.242 
	574.706,104.867 "/>
<polygon fill="#FFFFFF" stroke="#000000" stroke-miterlimit="10" points="569.983,103.906 569.983,166.545 574.705,166.545 
	576.663,103.906 574.706,104.867 "/>
<polyline fill="#FFFFFF" stroke="#000000" stroke-miterlimit="10" points="469.06,83.917 473.191,152.676 476.732,152.676 
	474.212,84.428 "/>
<polygon fill="#FFFFFF" stroke="#000000" stroke-miterlimit="10" points="669.727,58.242 664.415,116.673 660.283,116.673 
	662.617,61.73 "/>
<polyline fill="#FFFFFF" stroke="#000000" stroke-miterlimit="10" points="589.993,97.365 589.993,103.906 586.508,103.906 
	586.508,99.075 "/>
</svg>
