<?xml version="1.0" encoding="utf-8"?>
<!-- Generator: Adobe Illustrator 16.0.0, SVG Export Plug-In . SVG Version: 6.00 Build 0)  -->
<!DOCTYPE svg PUBLIC "-//W3C//DTD SVG 1.1//EN" "http://www.w3.org/Graphics/SVG/1.1/DTD/svg11.dtd">
<svg version="1.1" id="Layer_1" xmlns="http://www.w3.org/2000/svg" xmlns:xlink="http://www.w3.org/1999/xlink" x="0px" y="0px"
	 width="678.955px" height="187.5px" viewBox="0 0 678.955 187.5" enable-background="new 0 0 678.955 187.5" xml:space="preserve">
<rect fill="#F6F6F6" width="678.955" height="187.5"/>
<rect x="339.162" y="-40.669" fill="none" width="610.252" height="121.335"/>
<path fill="#FFFFFF" stroke="#000000" stroke-miterlimit="10" d="M489.661,29.819l-9.914,44.163c0,0,41.484,32.445,132.951,4.506
	l-12.019-48.668"/>
<ellipse fill="#FFFFFF" stroke="#000000" stroke-miterlimit="10" cx="545.17" cy="29.819" rx="55.509" ry="11.717"/>
<path fill="#FFFFFF" stroke="#000000" stroke-miterlimit="10" d="M527.515,89.835c0,0,4.506,7.579-15.322,31.013
	c-19.828,23.433-6.309,48.668,0,53.175h52.274c0,0,9.914-35.149-8.111-54.978s-10.133-29.21-10.133-29.21H527.515z"/>
<line fill="none" stroke="#000000" stroke-miterlimit="10" x1="571.714" y1="87.761" x2="571.714" y2="107.329"/>
<circle fill="#FFFFFF" stroke="#000000" stroke-miterlimit="10" cx="571.714" cy="109.23" r="3.305"/>
<rect x="355.077" y="24.314" fill="none" width="177.423" height="58.352"/>
<text transform="matrix(1 0 0 1 355.0767 47.9419)" font-family="'Arial-BoldMT'" font-size="33">LÄMP</text>
<rect x="27.903" y="97.546" transform="matrix(1 0.0045 -0.0045 1 0.7439 -0.7955)" fill="none" width="302" height="137.999"/>
<text transform="matrix(1 0 0 1 28.1763 177.063)" fill="#2B3990" font-family="'Arial-BoldMT'" font-size="112">IKEA</text>
<rect x="414.786" y="60.66" fill="none" width="177.423" height="58.352"/>
<text transform="matrix(1 0 0 1 414.7856 72.8315)" font-family="'ArialMT'" font-size="17">$10</text>
</svg>
