<?xml version="1.0" encoding="utf-8"?>
<!-- Generator: Adobe Illustrator 16.0.0, SVG Export Plug-In . SVG Version: 6.00 Build 0)  -->
<!DOCTYPE svg PUBLIC "-//W3C//DTD SVG 1.1//EN" "http://www.w3.org/Graphics/SVG/1.1/DTD/svg11.dtd">
<svg version="1.1" id="Layer_1" xmlns="http://www.w3.org/2000/svg" xmlns:xlink="http://www.w3.org/1999/xlink" x="0px" y="0px"
	 width="18.25px" height="18.453px" viewBox="0 0 18.25 18.453" enable-background="new 0 0 18.25 18.453" xml:space="preserve">
<g>
	<path fill-rule="evenodd" clip-rule="evenodd" d="M18.115,9.288c0,2.437,0,4.874,0,7.31c-0.001,1.102-0.502,1.612-1.602,1.613
		c-4.92,0.003-9.842,0.002-14.763,0c-1.103,0-1.614-0.51-1.614-1.603c0-4.921,0-9.842,0-14.763c0-1.111,0.492-1.604,1.604-1.604
		c4.921-0.002,9.842-0.002,14.763,0c1.117,0,1.61,0.49,1.612,1.593C18.116,4.319,18.115,6.804,18.115,9.288z M9.834,8.032
		C9.829,7.939,9.799,7.786,9.815,7.636c0.038-0.369-0.096-0.511-0.481-0.493c-0.62,0.028-1.241,0.015-1.862,0.004
		C7.209,7.143,7.094,7.246,7.095,7.509c0.002,2.468,0.003,4.936-0.002,7.403c-0.001,0.267,0.102,0.367,0.368,0.363
		c0.621-0.011,1.243-0.028,1.863,0.006c0.416,0.022,0.514-0.141,0.494-0.523c-0.027-0.54-0.008-1.082-0.006-1.623
		c0.002-0.86-0.014-1.719,0.013-2.579C9.85,9.75,10.463,9.155,11.26,9.109c0.726-0.042,1.242,0.451,1.354,1.315
		c0.036,0.282,0.036,0.571,0.037,0.858c0.003,1.194,0.011,2.388-0.004,3.582c-0.004,0.31,0.093,0.422,0.407,0.413
		c0.653-0.018,1.306-0.011,1.959-0.002c0.251,0.003,0.385-0.069,0.38-0.349c-0.031-1.718,0.021-3.442-0.101-5.153
		c-0.146-2.043-2.016-3.276-3.932-2.643C10.816,7.309,10.349,7.72,9.834,8.032z M5.596,11.221c0-1.209-0.008-2.418,0.006-3.628
		c0.004-0.322-0.086-0.459-0.43-0.449C4.536,7.167,3.898,7.159,3.262,7.147c-0.285-0.006-0.403,0.104-0.403,0.39
		c0.004,2.451,0.005,4.901-0.002,7.352c-0.001,0.289,0.106,0.394,0.394,0.387c0.621-0.014,1.242-0.021,1.861,0.002
		c0.364,0.015,0.501-0.084,0.493-0.477C5.58,13.609,5.596,12.416,5.596,11.221z M4.224,6.036c0.864,0.001,1.52-0.583,1.531-1.361
		c0.01-0.791-0.623-1.388-1.486-1.401C3.383,3.259,2.722,3.852,2.722,4.656C2.723,5.448,3.362,6.035,4.224,6.036z"/>
</g>
</svg>
