<?xml version="1.0" encoding="utf-8"?>
<!-- Generator: Adobe Illustrator 16.0.0, SVG Export Plug-In . SVG Version: 6.00 Build 0)  -->
<!DOCTYPE svg PUBLIC "-//W3C//DTD SVG 1.1//EN" "http://www.w3.org/Graphics/SVG/1.1/DTD/svg11.dtd">
<svg version="1.1" id="Layer_1" xmlns="http://www.w3.org/2000/svg" xmlns:xlink="http://www.w3.org/1999/xlink" x="0px" y="0px"
	 width="25.305px" height="25.344px" viewBox="0 0 25.305 25.344" enable-background="new 0 0 25.305 25.344" xml:space="preserve">
<path fill="#939598" d="M25.244,23.006l-5.69-5.595c1.438-1.824,2.296-4.121,2.296-6.615c0-5.94-4.864-10.756-10.862-10.756
	c-6,0-10.863,4.816-10.863,10.756c0,5.941,4.863,10.757,10.863,10.757c2.306,0,4.444-0.713,6.202-1.926l5.753,5.657L25.244,23.006z
	 M10.937,19.027c-4.541,0-8.221-3.645-8.221-8.14c0-4.496,3.68-8.14,8.221-8.14c4.54,0,8.22,3.644,8.22,8.14
	C19.157,15.382,15.477,19.027,10.937,19.027z"/>
</svg>
