<?xml version="1.0" encoding="utf-8"?>
<!-- Generator: Adobe Illustrator 16.0.0, SVG Export Plug-In . SVG Version: 6.00 Build 0)  -->
<!DOCTYPE svg PUBLIC "-//W3C//DTD SVG 1.1//EN" "http://www.w3.org/Graphics/SVG/1.1/DTD/svg11.dtd">
<svg version="1.1" id="Layer_1" xmlns="http://www.w3.org/2000/svg" xmlns:xlink="http://www.w3.org/1999/xlink" x="0px" y="0px"
	 width="89.724px" height="37.875px" viewBox="0 0 89.724 37.875" enable-background="new 0 0 89.724 37.875" xml:space="preserve">
<path fill="#939598" d="M-11.498-50.244l-5.69-5.595c1.438-1.824,2.296-4.121,2.296-6.615c0-5.94-4.864-10.756-10.862-10.756
	c-6,0-10.863,4.816-10.863,10.756c0,5.941,4.863,10.757,10.863,10.757c2.306,0,4.444-0.713,6.202-1.926l5.753,5.657L-11.498-50.244z
	 M-25.805-54.223c-4.541,0-8.221-3.645-8.221-8.14c0-4.496,3.68-8.14,8.221-8.14c4.54,0,8.22,3.644,8.22,8.14
	C-17.585-57.868-21.265-54.223-25.805-54.223z"/>
<g>
	<defs>
		<rect id="SVGID_1_" x="-2.07" y="-70.047" width="18.606" height="18.625"/>
	</defs>
	<clipPath id="SVGID_2_">
		<use xlink:href="#SVGID_1_"  overflow="visible"/>
	</clipPath>
	<g clip-path="url(#SVGID_2_)">
		<path fill-rule="evenodd" clip-rule="evenodd" d="M10.211-51.446c-0.015-0.191-0.035-0.333-0.035-0.475
			c-0.002-1.986,0.01-3.972-0.011-5.957c-0.004-0.426,0.151-0.522,0.539-0.508c0.699,0.026,1.4-0.005,2.099,0.013
			c0.31,0.008,0.442-0.085,0.436-0.411c-0.015-0.765-0.011-1.53-0.001-2.295c0.004-0.289-0.099-0.404-0.4-0.397
			c-0.749,0.016-1.498-0.007-2.246,0.01c-0.318,0.008-0.418-0.1-0.424-0.419c-0.033-1.66,0.221-1.658,1.556-1.618
			c0.484,0.015,0.968,0.002,1.508,0.002c0-0.97,0.006-1.878-0.01-2.786c-0.001-0.089-0.137-0.255-0.206-0.253
			c-1.021,0.027-2.076-0.074-3.053,0.154c-1.542,0.359-2.55,1.851-2.634,3.548c-0.021,0.434-0.003,0.87-0.003,1.367
			c-0.646,0-1.228,0.013-1.808-0.005c-0.332-0.01-0.471,0.1-0.462,0.446c0.018,0.732,0.021,1.465-0.001,2.197
			c-0.012,0.382,0.155,0.472,0.497,0.459c0.565-0.019,1.131-0.005,1.73-0.005c0,2.325,0,4.594,0,6.908
			c-0.163,0.008-0.32,0.024-0.477,0.024c-1.791,0.002-3.581,0.005-5.372,0c-1.947-0.006-3.304-1.372-3.306-3.328
			c-0.003-3.906-0.003-7.812,0-11.719c0.002-1.967,1.348-3.32,3.303-3.322c3.923-0.003,7.846-0.003,11.768,0
			c1.959,0.001,3.305,1.351,3.307,3.315c0.003,3.906,0.003,7.812,0,11.719c-0.001,1.98-1.358,3.33-3.346,3.335
			C12.188-51.443,11.216-51.446,10.211-51.446z"/>
	</g>
</g>
<g>
	<path fill-rule="evenodd" clip-rule="evenodd" d="M25.537-62.413c0-1.198-0.008-2.396,0.002-3.594
		c0.009-0.999,0.479-1.659,1.335-1.917c1.097-0.331,2.243,0.435,2.35,1.576c0.021,0.222,0.015,0.447,0.02,0.67
		c0.016,0.721,0.032,1.441,0.048,2.162c0.732,0.021,1.464,0.053,2.196,0.061c0.974,0.011,1.948-0.009,2.922,0.007
		c1.079,0.018,1.831,0.81,1.777,1.842c-0.048,0.917-0.804,1.603-1.814,1.61c-1.527,0.012-3.054,0.003-4.581,0.003
		c-0.549,0-0.555,0.001-0.547,0.558c0.005,0.368-0.011,0.742,0.055,1.101c0.16,0.874,0.861,1.458,1.752,1.468
		c1.224,0.015,2.448-0.009,3.672,0.01c1.256,0.02,2.082,1.086,1.818,2.311c-0.153,0.711-0.852,1.377-1.588,1.383
		c-1.564,0.011-3.133,0.02-4.693-0.078c-1.316-0.083-2.375-0.776-3.266-1.73c-1.034-1.107-1.455-2.441-1.46-3.928
		C25.533-60.069,25.537-61.241,25.537-62.413z"/>
</g>
<g>
	<path fill-rule="evenodd" clip-rule="evenodd" d="M62.998-60.517c0,2.437,0,4.874,0,7.31c-0.001,1.102-0.502,1.612-1.602,1.613
		c-4.92,0.003-9.842,0.002-14.763,0c-1.103,0-1.614-0.51-1.614-1.603c0-4.921,0-9.842,0-14.763c0-1.111,0.492-1.604,1.604-1.604
		c4.921-0.002,9.842-0.002,14.763,0c1.117,0,1.61,0.49,1.612,1.593C62.999-65.486,62.998-63.001,62.998-60.517z M54.717-61.772
		c-0.005-0.093-0.035-0.247-0.019-0.396c0.038-0.369-0.096-0.511-0.481-0.493c-0.62,0.028-1.241,0.015-1.862,0.004
		c-0.263-0.004-0.378,0.098-0.377,0.362c0.002,2.468,0.003,4.936-0.002,7.403c-0.001,0.267,0.102,0.367,0.368,0.363
		c0.621-0.011,1.243-0.028,1.863,0.006c0.416,0.022,0.514-0.141,0.494-0.523c-0.027-0.54-0.008-1.082-0.006-1.623
		c0.002-0.86-0.014-1.719,0.013-2.579c0.026-0.807,0.639-1.401,1.436-1.447c0.726-0.042,1.242,0.451,1.354,1.315
		c0.036,0.282,0.036,0.571,0.037,0.858c0.003,1.194,0.011,2.388-0.004,3.582c-0.004,0.31,0.093,0.422,0.407,0.413
		c0.653-0.018,1.306-0.011,1.959-0.002c0.251,0.003,0.385-0.069,0.38-0.349c-0.031-1.718,0.021-3.442-0.101-5.153
		c-0.146-2.043-2.016-3.276-3.932-2.643C55.699-62.496,55.231-62.085,54.717-61.772z M50.479-58.583
		c0-1.209-0.008-2.418,0.006-3.628c0.004-0.322-0.086-0.459-0.43-0.449c-0.636,0.022-1.273,0.015-1.909,0.002
		c-0.285-0.006-0.403,0.104-0.403,0.39c0.004,2.451,0.005,4.901-0.002,7.352c-0.001,0.289,0.106,0.394,0.394,0.387
		c0.621-0.014,1.242-0.021,1.861,0.002c0.364,0.015,0.501-0.084,0.493-0.477C50.463-56.196,50.479-57.389,50.479-58.583z
		 M49.107-63.769c0.864,0.001,1.52-0.583,1.531-1.361c0.01-0.791-0.623-1.388-1.486-1.401c-0.886-0.015-1.548,0.578-1.547,1.382
		C47.606-64.356,48.245-63.77,49.107-63.769z"/>
</g>
<polygon fill-rule="evenodd" clip-rule="evenodd" points="72.82,-69.484 74.035,-69.484 74.722,-67.186 75.435,-69.484 
	76.598,-69.484 75.33,-66.447 75.33,-62.59 74.141,-62.59 74.141,-66.394 "/>
<path d="M76.492-66.459c0,0-0.06-1.406,1.347-1.406c1.406,0,1.387,1.406,1.387,1.406v2.833c0,0,0.059,1.109-1.367,1.109
	s-1.367-1.07-1.367-1.07L76.492-66.459z M77.402-63.746c0,0,0,0.376,0.465,0.376s0.466-0.456,0.466-0.456v-2.714
	c0,0,0.02-0.515-0.476-0.515c-0.496,0-0.455,0.515-0.455,0.515L77.402-63.746z"/>
<path fill-rule="evenodd" clip-rule="evenodd" d="M79.879-67.628h0.971v3.823c0,0,0,0.436,0.356,0.436
	c0.357,0,0.396-0.336,0.396-0.336v-3.922h0.911v4.952h-1.149v-0.436c0,0-0.218,0.521-0.792,0.521c-0.772,0-0.693-0.759-0.693-0.759
	V-67.628z"/>
<path fill-rule="evenodd" clip-rule="evenodd" d="M72.82-61.586h10.625c0,0,1.644,0.079,2,1.901v6.022c0,0-0.059,1.961-2.258,1.981
	c-2.199,0.02-10.367,0-10.367,0s-2.192-0.079-2.232-2.476s0-5.428,0-5.428S70.951-61.586,72.82-61.586z"/>
<polygon fill-rule="evenodd" clip-rule="evenodd" fill="#FFFFFF" points="71.619,-59.843 74.986,-59.843 74.986,-58.872 
	73.758,-58.872 73.758,-53.365 72.589,-53.365 72.589,-58.952 71.619,-58.952 "/>
<path fill-rule="evenodd" clip-rule="evenodd" fill="#FFFFFF" d="M75.798-58.1h-1.03v4.001c0,0-0.04,0.733,0.713,0.733
	s0.971-0.495,1.089-0.614v0.614h0.911V-58.1h-1.109v3.605c0,0-0.04,0.396-0.248,0.396s-0.282-0.282-0.282-0.282L75.798-58.1z"/>
<path fill-rule="evenodd" clip-rule="evenodd" fill="#FFFFFF" d="M78.096-59.843h1.01V-58c0,0,0.476-0.337,0.852-0.317
	c0.376,0.02,0.752,0.257,0.752,0.812s0,3.209,0,3.209s-0.007,0.848-0.475,0.931c-0.555,0.099-1.05-0.159-1.308-0.535v0.436h-0.832
	V-59.843z M79.027-54.455c0,0,0.04,0.336,0.489,0.336c0.45,0,0.482-0.456,0.482-0.456v-2.714c0,0,0.099-0.416-0.416-0.416
	c-0.674,0-0.555,0.416-0.555,0.416V-54.455z"/>
<path fill-rule="evenodd" clip-rule="evenodd" fill="#FFFFFF" d="M81.424-57.188c0,0-0.009-1.208,1.288-1.208
	c1.129,0,1.208,0.693,1.208,0.693v1.971h-1.684l-0.04,0.941c0,0-0.04,0.772,0.476,0.772c0.515,0,0.555-0.337,0.555-0.971h0.693
	c0,0,0.356,1.743-1.248,1.743c0,0-1.229-0.04-1.248-1.268C81.404-55.742,81.424-57.188,81.424-57.188z M82.256-56.476h0.99
	c0,0,0.119-1.089-0.495-1.089S82.256-56.476,82.256-56.476z"/>
<g>
	<g>
		<g>
			<g>
				<path fill="#B6B8BA" d="M12.13-12.415H0.597v-4.559l10.92-17.05h5.209v17.472h3.945v4.137h-3.945v5.515H12.13V-12.415z
					 M12.13-27.51h-0.077L5.272-16.551h6.858V-27.51z"/>
				<path fill="#B6B8BA" d="M33.314-34.482c1.15,0,2.23,0.158,3.238,0.478c1.009,0.321,1.89,0.779,2.644,1.378
					c0.754,0.603,1.349,1.343,1.782,2.225c0.433,0.881,0.652,1.895,0.652,3.044c0,1.456-0.34,2.735-1.015,3.833
					c-0.679,1.098-1.706,1.852-3.085,2.259v0.077c0.64,0.129,1.259,0.389,1.859,0.785c0.6,0.398,1.131,0.883,1.589,1.456
					c0.459,0.577,0.822,1.232,1.091,1.974c0.27,0.742,0.403,1.534,0.403,2.377c0,1.353-0.244,2.533-0.729,3.542
					c-0.484,1.008-1.137,1.859-1.952,2.547c-0.819,0.691-1.788,1.207-2.912,1.553c-1.124,0.344-2.313,0.517-3.564,0.517
					c-1.278,0-2.472-0.172-3.582-0.517c-1.11-0.347-2.074-0.862-2.891-1.553c-0.82-0.688-1.471-1.539-1.956-2.547
					c-0.485-1.009-0.729-2.189-0.729-3.542c0-0.843,0.136-1.635,0.403-2.377c0.269-0.742,0.632-1.397,1.094-1.974
					c0.459-0.573,0.987-1.058,1.589-1.456c0.6-0.396,1.22-0.656,1.857-0.785v-0.077c-1.379-0.407-2.407-1.161-3.083-2.259
					C25.34-24.623,25-25.902,25-27.358c0-1.149,0.219-2.163,0.654-3.044c0.433-0.882,1.027-1.622,1.779-2.225
					c0.754-0.599,1.635-1.057,2.646-1.378C31.086-34.324,32.167-34.482,33.314-34.482z M33.314-19.425
					c-0.613,0-1.201,0.101-1.76,0.307c-0.562,0.204-1.049,0.496-1.457,0.881c-0.409,0.381-0.735,0.835-0.979,1.359
					c-0.243,0.526-0.362,1.092-0.362,1.705c0,1.302,0.428,2.356,1.283,3.161c0.854,0.806,1.949,1.207,3.275,1.207
					c1.33,0,2.421-0.401,3.276-1.207c0.854-0.805,1.285-1.859,1.285-3.161c0-0.612-0.123-1.179-0.364-1.705
					c-0.244-0.523-0.57-0.978-0.977-1.359c-0.41-0.385-0.894-0.677-1.457-0.881C34.516-19.325,33.929-19.425,33.314-19.425z
					 M33.314-30.576c-1.172,0-2.088,0.359-2.739,1.074c-0.65,0.715-0.976,1.584-0.976,2.605c0,1.072,0.329,1.974,0.997,2.699
					c0.663,0.729,1.571,1.091,2.718,1.091c0.511,0,0.991-0.093,1.438-0.285c0.445-0.192,0.843-0.46,1.187-0.806
					c0.344-0.343,0.613-0.746,0.803-1.206c0.194-0.46,0.291-0.957,0.291-1.493c0-1.021-0.351-1.89-1.054-2.605
					C35.275-30.216,34.388-30.576,33.314-30.576z"/>
			</g>
			<path fill="#B6B8BA" d="M49.679-30.195c-3.562,0-6.458-2.896-6.458-6.458c0-3.559,2.897-6.457,6.458-6.457
				c3.561,0,6.459,2.898,6.459,6.457C56.138-33.091,53.24-30.195,49.679-30.195z M49.679-39.626c-1.641,0-2.977,1.334-2.977,2.973
				c0,1.641,1.335,2.977,2.977,2.977c1.641,0,2.976-1.335,2.976-2.977C52.655-38.292,51.32-39.626,49.679-39.626z"/>
		</g>
	</g>
	<path stroke="#FFFFFF" stroke-width="0.1" stroke-miterlimit="10" d="M61.667-13.415l27.773-0.084c0,0,0.025-9.396-6.978-5.302
		c0,0,0.384-13.917-9.857-11.613c0,0-4.654,1.384-5.518,5.912C67.087-24.501,57-23.895,61.667-13.415z"/>
	<path stroke="#FFFFFF" stroke-width="0.9" stroke-miterlimit="10" d="M50.593-10.249l20.596-0.063c0,0,0.019-6.968-5.174-3.931
		c0,0,0.283-10.318-7.309-8.612c0,0-3.453,1.026-4.093,4.383C54.612-18.472,47.134-18.022,50.593-10.249z"/>
</g>
<g>
	<g>
		<g>
			<g>
				<path fill="#B6B8BA" d="M12.13,31.297H0.597v-4.559l10.92-17.05h5.209v17.472h3.945v4.137h-3.945v5.515H12.13V31.297z
					 M12.13,16.202h-0.077L5.272,27.161h6.858V16.202z"/>
				<path fill="#B6B8BA" d="M33.314,9.23c1.15,0,2.23,0.158,3.238,0.478c1.009,0.321,1.89,0.779,2.644,1.378
					c0.754,0.603,1.349,1.343,1.782,2.225c0.433,0.881,0.652,1.895,0.652,3.044c0,1.456-0.34,2.735-1.015,3.833
					c-0.679,1.098-1.706,1.852-3.085,2.259v0.077c0.64,0.129,1.259,0.389,1.859,0.785c0.6,0.398,1.131,0.883,1.589,1.456
					c0.459,0.577,0.822,1.232,1.091,1.974c0.27,0.742,0.403,1.534,0.403,2.377c0,1.353-0.244,2.533-0.729,3.542
					c-0.484,1.008-1.137,1.859-1.952,2.547c-0.819,0.691-1.788,1.207-2.912,1.553c-1.124,0.344-2.313,0.517-3.564,0.517
					c-1.278,0-2.472-0.172-3.582-0.517c-1.11-0.347-2.074-0.862-2.891-1.553c-0.82-0.688-1.471-1.539-1.956-2.547
					c-0.485-1.009-0.729-2.189-0.729-3.542c0-0.843,0.136-1.635,0.403-2.377c0.269-0.742,0.632-1.397,1.094-1.974
					c0.459-0.573,0.987-1.058,1.589-1.456c0.6-0.396,1.22-0.656,1.857-0.785v-0.077c-1.379-0.407-2.407-1.161-3.083-2.259
					C25.34,19.089,25,17.81,25,16.354c0-1.149,0.219-2.163,0.654-3.044c0.433-0.882,1.027-1.622,1.779-2.225
					c0.754-0.599,1.635-1.057,2.646-1.378C31.086,9.388,32.167,9.23,33.314,9.23z M33.314,24.287c-0.613,0-1.201,0.101-1.76,0.307
					c-0.562,0.204-1.049,0.496-1.457,0.881c-0.409,0.381-0.735,0.835-0.979,1.359c-0.243,0.526-0.362,1.092-0.362,1.705
					c0,1.302,0.428,2.356,1.283,3.161c0.854,0.806,1.949,1.207,3.275,1.207c1.33,0,2.421-0.401,3.276-1.207
					c0.854-0.805,1.285-1.859,1.285-3.161c0-0.612-0.123-1.179-0.364-1.705c-0.244-0.523-0.57-0.978-0.977-1.359
					c-0.41-0.385-0.894-0.677-1.457-0.881C34.516,24.387,33.929,24.287,33.314,24.287z M33.314,13.136
					c-1.172,0-2.088,0.359-2.739,1.074c-0.65,0.715-0.976,1.584-0.976,2.605c0,1.072,0.329,1.974,0.997,2.699
					c0.663,0.729,1.571,1.091,2.718,1.091c0.511,0,0.991-0.093,1.438-0.285c0.445-0.192,0.843-0.46,1.187-0.806
					c0.344-0.343,0.613-0.746,0.803-1.206c0.194-0.46,0.291-0.957,0.291-1.493c0-1.021-0.351-1.89-1.054-2.605
					C35.275,13.496,34.388,13.136,33.314,13.136z"/>
			</g>
			<path fill="#B6B8BA" d="M49.679,13.517c-3.562,0-6.458-2.896-6.458-6.458c0-3.559,2.897-6.457,6.458-6.457
				c3.561,0,6.459,2.898,6.459,6.457C56.138,10.621,53.24,13.517,49.679,13.517z M49.679,4.085c-1.641,0-2.977,1.334-2.977,2.973
				c0,1.641,1.335,2.977,2.977,2.977c1.641,0,2.976-1.335,2.976-2.977C52.655,5.42,51.32,4.085,49.679,4.085z"/>
		</g>
	</g>
	<path fill="#FFFFFF" stroke="#000000" stroke-width="0.1" stroke-miterlimit="10" d="M61.667,30.297l27.773-0.084
		c0,0,0.025-9.396-6.978-5.302c0,0,0.384-13.917-9.857-11.613c0,0-4.654,1.384-5.518,5.912C67.087,19.21,57,19.817,61.667,30.297z"
		/>
	<path fill="#FFFFFF" stroke="#000000" stroke-width="0.9" stroke-miterlimit="10" d="M50.593,33.463l20.596-0.063
		c0,0,0.019-6.968-5.174-3.931c0,0,0.283-10.318-7.309-8.612c0,0-3.453,1.026-4.093,4.383C54.612,25.24,47.134,25.689,50.593,33.463
		z"/>
</g>
</svg>
