<?xml version="1.0" encoding="utf-8"?>
<!-- Generator: Adobe Illustrator 16.0.0, SVG Export Plug-In . SVG Version: 6.00 Build 0)  -->
<!DOCTYPE svg PUBLIC "-//W3C//DTD SVG 1.1//EN" "http://www.w3.org/Graphics/SVG/1.1/DTD/svg11.dtd">
<svg version="1.1" id="Layer_1" xmlns="http://www.w3.org/2000/svg" xmlns:xlink="http://www.w3.org/1999/xlink" x="0px" y="0px"
	 width="18.25px" height="18.453px" viewBox="0 0 18.25 18.453" enable-background="new 0 0 18.25 18.453" xml:space="preserve">
<g>
	<path fill-rule="evenodd" clip-rule="evenodd" d="M4.029,7.392c0-1.198-0.008-2.396,0.002-3.594C4.04,2.8,4.51,2.139,5.367,1.881
		C6.464,1.55,7.61,2.316,7.716,3.457c0.021,0.222,0.015,0.447,0.02,0.67c0.016,0.721,0.032,1.441,0.048,2.162
		C8.516,6.31,9.248,6.341,9.98,6.35c0.974,0.011,1.948-0.009,2.922,0.007c1.079,0.018,1.831,0.81,1.777,1.842
		c-0.048,0.917-0.804,1.603-1.814,1.61C11.339,9.82,9.812,9.812,8.285,9.812c-0.549,0-0.555,0.001-0.547,0.558
		c0.005,0.368-0.011,0.742,0.055,1.101c0.16,0.874,0.861,1.458,1.752,1.468c1.224,0.015,2.448-0.009,3.672,0.01
		c1.256,0.02,2.082,1.086,1.818,2.311c-0.153,0.711-0.852,1.377-1.588,1.383c-1.564,0.011-3.133,0.02-4.693-0.078
		c-1.316-0.083-2.375-0.776-3.266-1.73c-1.034-1.107-1.455-2.441-1.46-3.928C4.025,9.735,4.029,8.563,4.029,7.392z"/>
</g>
</svg>
